<svg id="eI5XQcTzYyD1" xmlns="http://www.w3.org/2000/svg" xmlns:xlink="http://www.w3.org/1999/xlink" viewBox="0 0 1000 1000" shape-rendering="geometricPrecision" text-rendering="geometricPrecision" project-id="1d073add9da744c0bcf91c95304f4e24" export-id="4eea50da48ef442fb85878b3907535e7" cached="false"><defs><linearGradient id="eI5XQcTzYyD7-fill" x1="0.146447" y1="0.146447" x2="0.853553" y2="0.853553" spreadMethod="pad" gradientUnits="objectBoundingBox" gradientTransform="translate(0 0)"><stop id="eI5XQcTzYyD7-fill-0" offset="20%" stop-color="#d2dbed"/><stop id="eI5XQcTzYyD7-fill-1" offset="20%" stop-color="#ecf0f8"/><stop id="eI5XQcTzYyD7-fill-2" offset="29%" stop-color="#fff"/><stop id="eI5XQcTzYyD7-fill-3" offset="30%" stop-color="#d2dbed"/><stop id="eI5XQcTzYyD7-fill-4" offset="40%" stop-color="#d2dbed"/><stop id="eI5XQcTzYyD7-fill-5" offset="41%" stop-color="#fff"/><stop id="eI5XQcTzYyD7-fill-6" offset="50%" stop-color="#fff"/><stop id="eI5XQcTzYyD7-fill-7" offset="51%" stop-color="#d2dbed"/></linearGradient><radialGradient id="eI5XQcTzYyD8-fill" cx="0" cy="0" r="0.5" spreadMethod="pad" gradientUnits="objectBoundingBox" gradientTransform="translate(0.5 0.5)"><stop id="eI5XQcTzYyD8-fill-0" offset="28%" stop-color="#cfff00"/><stop id="eI5XQcTzYyD8-fill-1" offset="100%" stop-color="rgba(251,251,253,0)"/></radialGradient><linearGradient id="eI5XQcTzYyD11-fill" x1="0.146447" y1="0.146447" x2="0.853553" y2="0.853553" spreadMethod="pad" gradientUnits="objectBoundingBox" gradientTransform="translate(0 0)"><stop id="eI5XQcTzYyD11-fill-0" offset="20%" stop-color="#d2dbed"/><stop id="eI5XQcTzYyD11-fill-1" offset="20%" stop-color="#ecf0f8"/><stop id="eI5XQcTzYyD11-fill-2" offset="29%" stop-color="#fff"/><stop id="eI5XQcTzYyD11-fill-3" offset="30%" stop-color="#d2dbed"/><stop id="eI5XQcTzYyD11-fill-4" offset="40%" stop-color="#d2dbed"/><stop id="eI5XQcTzYyD11-fill-5" offset="41%" stop-color="#fff"/><stop id="eI5XQcTzYyD11-fill-6" offset="50%" stop-color="#fff"/><stop id="eI5XQcTzYyD11-fill-7" offset="51%" stop-color="#d2dbed"/></linearGradient><linearGradient id="eI5XQcTzYyD12-fill" x1="0.146447" y1="0.146447" x2="0.853553" y2="0.853553" spreadMethod="pad" gradientUnits="objectBoundingBox" gradientTransform="translate(0 0)"><stop id="eI5XQcTzYyD12-fill-0" offset="20%" stop-color="#d2dbed"/><stop id="eI5XQcTzYyD12-fill-1" offset="20%" stop-color="#ecf0f8"/><stop id="eI5XQcTzYyD12-fill-2" offset="29%" stop-color="#fff"/><stop id="eI5XQcTzYyD12-fill-3" offset="30%" stop-color="#d2dbed"/><stop id="eI5XQcTzYyD12-fill-4" offset="40%" stop-color="#d2dbed"/><stop id="eI5XQcTzYyD12-fill-5" offset="41%" stop-color="#fff"/><stop id="eI5XQcTzYyD12-fill-6" offset="50%" stop-color="#fff"/><stop id="eI5XQcTzYyD12-fill-7" offset="51%" stop-color="#d2dbed"/></linearGradient></defs><rect width="794.477139" height="792.213672" rx="173" ry="173" transform="matrix(1.004135 0 0 1.006697 101.629838 99.592437)" fill="#b0e5ea" stroke-width="0"/><path d="M327.637243,636.034405c0,0,65.4081-74.694432,97.09927-74.694432c47.095769,0,109.890129,0,156.985898,0c31.720619,0,92.118558,74.694432,92.118558,74.694432h-346.203726Z" transform="matrix(1.08589 0 0 1-43.2366 20.3712)" fill="#909fbd" stroke="#000" stroke-width="20" stroke-linejoin="round"/><rect width="368.945" height="72.431" rx="21" ry="21" transform="matrix(1.06748 0 0 1 303.078 656.406)" fill="#515a6c" stroke="#000" stroke-width="20" stroke-linejoin="round"/><rect width="67.904" height="82.6166" rx="0" ry="0" transform="translate(475.102 516.071)" fill="#515a6c" stroke="#000" stroke-width="20"/><rect width="722.046" height="142.598" rx="41" ry="41" transform="matrix(1.29782 0 0 1.09524 40.5123 380.263)" fill="#515a6c" stroke="#000" stroke-width="20"/><ellipse rx="40" ry="40" transform="translate(231.39 458.352)" fill="url(#eI5XQcTzYyD7-fill)" stroke="#000" stroke-width="20"/><ellipse rx="34.6024" ry="34.603" transform="matrix(1.15598 0 0 1.15597 333.923 458.352)" fill="url(#eI5XQcTzYyD8-fill)" stroke-width="0"/><ellipse rx="29.6592" ry="29.6597" transform="matrix(.505745 0 0 0.505737 333.923 458.352)" fill="#cfff00" stroke="#000" stroke-width="20"/><path d="M78.981654,380.26257c0,0,68.386575-49.833408,126.263195-49.833408c196.557178,0,415.84003,0,610.050858,0c56.312387,0,129.050762,49.833407,129.050762,49.833407l-865.364815.000001Z" transform="translate(.000003 0)" fill="#909fbd" stroke="#000" stroke-width="20"/><ellipse rx="40" ry="40" transform="translate(444.156 458.352)" fill="url(#eI5XQcTzYyD11-fill)" stroke="#000" stroke-width="20"/><ellipse rx="40" ry="40" transform="translate(567.162 458.352)" fill="url(#eI5XQcTzYyD12-fill)" stroke="#000" stroke-width="20"/></svg>
