<svg id="eHzh3ZowN1s1" xmlns="http://www.w3.org/2000/svg" xmlns:xlink="http://www.w3.org/1999/xlink" viewBox="0 0 1000 1000" shape-rendering="geometricPrecision" text-rendering="geometricPrecision" project-id="5b796846595746b18b8807b07196cac6" export-id="cc4c623a63254af2823f06fa7e5c025d" cached="false"><defs><linearGradient id="eHzh3ZowN1s6-fill" x1="0.146447" y1="0.146447" x2="0.853553" y2="0.853553" spreadMethod="pad" gradientUnits="objectBoundingBox" gradientTransform="translate(0 0)"><stop id="eHzh3ZowN1s6-fill-0" offset="20%" stop-color="#d2dbed"/><stop id="eHzh3ZowN1s6-fill-1" offset="20%" stop-color="#ecf0f8"/><stop id="eHzh3ZowN1s6-fill-2" offset="29%" stop-color="#fff"/><stop id="eHzh3ZowN1s6-fill-3" offset="30%" stop-color="#d2dbed"/><stop id="eHzh3ZowN1s6-fill-4" offset="40%" stop-color="#d2dbed"/><stop id="eHzh3ZowN1s6-fill-5" offset="41%" stop-color="#fff"/><stop id="eHzh3ZowN1s6-fill-6" offset="50%" stop-color="#fff"/><stop id="eHzh3ZowN1s6-fill-7" offset="51%" stop-color="#d2dbed"/></linearGradient><radialGradient id="eHzh3ZowN1s7-fill" cx="0" cy="0" r="0.5" spreadMethod="pad" gradientUnits="objectBoundingBox" gradientTransform="translate(0.5 0.5)"><stop id="eHzh3ZowN1s7-fill-0" offset="28%" stop-color="#cfff00"/><stop id="eHzh3ZowN1s7-fill-1" offset="100%" stop-color="rgba(251,251,253,0)"/></radialGradient><linearGradient id="eHzh3ZowN1s10-fill" x1="0.146447" y1="0.146447" x2="0.853553" y2="0.853553" spreadMethod="pad" gradientUnits="objectBoundingBox" gradientTransform="translate(0 0)"><stop id="eHzh3ZowN1s10-fill-0" offset="20%" stop-color="#d2dbed"/><stop id="eHzh3ZowN1s10-fill-1" offset="20%" stop-color="#ecf0f8"/><stop id="eHzh3ZowN1s10-fill-2" offset="29%" stop-color="#fff"/><stop id="eHzh3ZowN1s10-fill-3" offset="30%" stop-color="#d2dbed"/><stop id="eHzh3ZowN1s10-fill-4" offset="40%" stop-color="#d2dbed"/><stop id="eHzh3ZowN1s10-fill-5" offset="41%" stop-color="#fff"/><stop id="eHzh3ZowN1s10-fill-6" offset="50%" stop-color="#fff"/><stop id="eHzh3ZowN1s10-fill-7" offset="51%" stop-color="#d2dbed"/></linearGradient><linearGradient id="eHzh3ZowN1s11-fill" x1="0.146447" y1="0.146447" x2="0.853553" y2="0.853553" spreadMethod="pad" gradientUnits="objectBoundingBox" gradientTransform="translate(0 0)"><stop id="eHzh3ZowN1s11-fill-0" offset="20%" stop-color="#d2dbed"/><stop id="eHzh3ZowN1s11-fill-1" offset="20%" stop-color="#ecf0f8"/><stop id="eHzh3ZowN1s11-fill-2" offset="29%" stop-color="#fff"/><stop id="eHzh3ZowN1s11-fill-3" offset="30%" stop-color="#d2dbed"/><stop id="eHzh3ZowN1s11-fill-4" offset="40%" stop-color="#d2dbed"/><stop id="eHzh3ZowN1s11-fill-5" offset="41%" stop-color="#fff"/><stop id="eHzh3ZowN1s11-fill-6" offset="50%" stop-color="#fff"/><stop id="eHzh3ZowN1s11-fill-7" offset="51%" stop-color="#d2dbed"/></linearGradient></defs><path d="M327.637243,636.034405c0,0,65.4081-74.694432,97.09927-74.694432c47.095769,0,109.890129,0,156.985898,0c31.720619,0,92.118558,74.694432,92.118558,74.694432h-346.203726Z" transform="matrix(1.08589 0 0 1-43.236596 20.371209)" fill="#909fbd" stroke="#000" stroke-width="20" stroke-linejoin="round"/><rect width="368.945224" height="72.430964" rx="21" ry="21" transform="matrix(1.067485 0 0 1 303.078254 656.405614)" fill="#515a6c" stroke="#000" stroke-width="20" stroke-linejoin="round"/><rect width="67.904029" height="82.616569" rx="0" ry="0" transform="translate(475.101857 516.07062)" fill="#515a6c" stroke="#000" stroke-width="20"/><rect width="722.046174" height="142.598461" rx="41" ry="41" transform="matrix(1.297816 0 0 1.095238 40.512332 380.26257)" fill="#515a6c" stroke="#000" stroke-width="20"/><ellipse rx="40" ry="40" transform="translate(231.389777 458.352197)" fill="url(#eHzh3ZowN1s6-fill)" stroke="#000" stroke-width="20"/><ellipse rx="34.602418" ry="34.602966" transform="matrix(1.155981 0 0 1.15597 333.922598 458.352199)" fill="url(#eHzh3ZowN1s7-fill)" stroke-width="0"/><ellipse rx="29.659216" ry="29.659685" transform="matrix(.505745 0 0 0.505737 333.922598 458.352197)" fill="#cfff00" stroke="#000" stroke-width="20"/><path d="M78.981654,380.26257c0,0,68.386575-49.833408,126.263195-49.833408c196.557178,0,415.84003,0,610.050858,0c56.312387,0,129.050762,49.833407,129.050762,49.833407l-865.364815.000001Z" transform="translate(.000003 0)" fill="#909fbd" stroke="#000" stroke-width="20"/><ellipse rx="40" ry="40" transform="translate(444.155726 458.352197)" fill="url(#eHzh3ZowN1s10-fill)" stroke="#000" stroke-width="20"/><ellipse rx="40" ry="40" transform="translate(567.161612 458.352197)" fill="url(#eHzh3ZowN1s11-fill)" stroke="#000" stroke-width="20"/></svg>
